Coordinates
version=1
nRows=26
nColumns=36
inDegrees=yes
inDegrees=no

Units are S.I. units (second, meters, Newtons, ...)
If the header above contains a line with 'inDegrees', this indicates whether rotational values are in degrees (yes) or radians (no).

endheader
time	pelvis_tilt	pelvis_list	pelvis_rotation	pelvis_tx	pelvis_ty	pelvis_tz	hip_flexion_r	hip_adduction_r	hip_rotation_r	knee_angle_r	knee_angle_r_beta	ankle_angle_r	subtalar_angle_r	mtp_angle_r	hip_flexion_l	hip_adduction_l	hip_rotation_l	knee_angle_l	knee_angle_l_beta	ankle_angle_l	subtalar_angle_l	mtp_angle_l	lumbar_extension	lumbar_bending	lumbar_rotation	arm_flex_r	arm_add_r	arm_rot_r	elbow_flex_r	pro_sup_r	arm_flex_l	arm_add_l	arm_rot_l	elbow_flex_l	pro_sup_l
3.916667 0.171440 -0.090515 0.096758 -0.006301 0.009488 -0.006779 1.446150 -0.061862 -0.018380 1.064564 0.018580 0.644768 0.291156 -0.130900 1.446619 0.166745 0.022602 0.993547 0.017341 0.513810 0.384879 -0.130900 -1.152650 -0.097987 0.200809 1.903151 0.019513 0.551711 0.912838 1.266135 0.616718 -0.020780 0.144158 0.871881 1.192607
3.933333 0.194509 -0.081515 0.094507 -0.006588 0.009425 -0.006760 1.404610 -0.049994 -0.002811 1.006194 0.017561 0.642967 0.273592 -0.130900 1.393394 0.173392 0.045927 0.931350 0.016255 0.522790 0.425939 -0.130900 -1.162509 -0.095724 0.229626 1.853343 0.002243 0.557103 0.915481 1.237632 0.537765 -0.018950 0.176952 0.856500 1.183290
3.950000 0.221921 -0.075726 0.098832 -0.006778 0.009443 -0.006760 1.365246 -0.041335 0.018850 0.964401 0.016832 0.623237 0.255227 -0.130900 1.342869 0.180698 0.064319 0.877881 0.015322 0.523295 0.453685 -0.130900 -1.173593 -0.085508 0.256120 1.798929 -0.015465 0.553076 0.919451 1.224730 0.466648 -0.024645 0.213654 0.834017 1.171782
3.966667 0.244163 -0.068745 0.099508 -0.006963 0.009695 -0.006705 1.322006 -0.028033 0.037580 0.925994 0.016162 0.584442 0.231738 -0.130900 1.283046 0.182500 0.084682 0.812964 0.014189 0.501338 0.433670 -0.130900 -1.185763 -0.080999 0.277635 1.746487 -0.025752 0.544014 0.899353 1.213880 0.413494 -0.040165 0.255892 0.806549 1.144274
3.983333 0.269049 -0.065705 0.094797 -0.007370 0.009719 -0.006730 1.272973 -0.011624 0.048917 0.873525 0.015246 0.526350 0.198763 -0.130900 1.224735 0.178682 0.106495 0.751172 0.013110 0.453282 0.390934 -0.130900 -1.197949 -0.074648 0.304562 1.707449 -0.040589 0.552767 0.859836 1.200066 0.375603 -0.058869 0.309341 0.783193 1.130005
4.000000 0.291115 -0.062027 0.087222 -0.007484 0.009651 -0.006856 1.239963 0.000314 0.062996 0.831981 0.014521 0.462291 0.150840 -0.130900 1.184685 0.180991 0.128020 0.710906 0.012408 0.413609 0.325029 -0.130900 -1.200753 -0.064570 0.328407 1.675516 -0.057211 0.581797 0.815284 1.189793 0.332366 -0.082803 0.371906 0.761863 1.092305
4.016667 0.306306 -0.059625 0.083642 -0.007610 0.009618 -0.006863 1.218803 0.008923 0.078953 0.806180 0.014070 0.401835 0.123853 -0.130900 1.164860 0.186292 0.143597 0.695126 0.012132 0.360069 0.263575 -0.130900 -1.195813 -0.050543 0.343661 1.630327 -0.067633 0.616537 0.781263 1.181791 0.286999 -0.115506 0.409934 0.768475 1.064140
4.033333 0.315345 -0.061527 0.078172 -0.007637 0.009540 -0.006823 1.206784 0.022913 0.087089 0.789857 0.013786 0.376115 0.100188 -0.130900 1.159897 0.192341 0.168593 0.696265 0.012152 0.330121 0.181478 -0.130900 -1.176762 -0.033954 0.360814 1.567342 -0.076074 0.656012 0.757619 1.171958 0.252360 -0.160529 0.450196 0.787245 1.034190
4.050000 0.321009 -0.065153 0.074267 -0.007623 0.009549 -0.006824 1.197703 0.036371 0.097822 0.778089 0.013580 0.372455 0.081368 -0.130900 1.159417 0.198890 0.187240 0.710880 0.012407 0.318280 0.082817 -0.130900 -1.150287 -0.019659 0.371757 1.488354 -0.083085 0.687790 0.734362 1.156962 0.204731 -0.210683 0.456244 0.825055 0.993507
4.066667 0.331451 -0.061995 0.068728 -0.007660 0.009638 -0.006677 1.180660 0.053270 0.117520 0.768277 0.013409 0.365926 0.033848 -0.130900 1.143547 0.197072 0.203618 0.702873 0.012267 0.312138 -0.000561 -0.130900 -1.131504 -0.024399 0.373530 1.413682 -0.087160 0.693381 0.711900 1.157041 0.153596 -0.259347 0.412966 0.869958 0.982286
4.083333 0.345875 -0.058839 0.068110 -0.007730 0.009742 -0.006605 1.156185 0.067808 0.132463 0.755111 0.013179 0.349191 -0.021187 -0.130900 1.115368 0.197988 0.218949 0.689703 0.012038 0.310731 -0.064269 -0.130900 -1.115800 -0.030261 0.372563 1.346838 -0.094547 0.685288 0.687874 1.156045 0.104987 -0.300836 0.355509 0.911763 0.979571
4.100000 0.363914 -0.059720 0.075642 -0.007800 0.009828 -0.006558 1.125467 0.074503 0.137518 0.738006 0.012881 0.346349 -0.042002 -0.130900 1.088907 0.196221 0.221311 0.684327 0.011944 0.299811 -0.096928 -0.130900 -1.106638 -0.029924 0.373553 1.296045 -0.108252 0.669125 0.673465 1.151750 0.071307 -0.343115 0.321893 0.941141 0.976853
4.116667 0.373408 -0.062150 0.082778 -0.007872 0.009842 -0.006613 1.108033 0.073935 0.133505 0.724190 0.012640 0.326170 -0.052492 -0.130900 1.080158 0.197957 0.212452 0.688495 0.012017 0.262446 -0.138140 -0.130900 -1.092175 -0.022472 0.366569 1.265417 -0.119178 0.650577 0.660918 1.148820 0.030465 -0.382088 0.292106 0.975934 0.972233
4.133333 0.373957 -0.068531 0.084139 -0.007753 0.009836 -0.006644 1.101482 0.075051 0.126899 0.712291 0.012432 0.334829 -0.051909 -0.130900 1.081688 0.197481 0.215105 0.695854 0.012145 0.267101 -0.150059 -0.130900 -1.061208 -0.012246 0.362089 1.240793 -0.135608 0.645422 0.661068 1.147563 0.000986 -0.422164 0.289494 0.998099 0.972477
4.150000 0.373619 -0.075040 0.086953 -0.007637 0.009806 -0.006698 1.105352 0.068709 0.108495 0.722484 0.012610 0.377112 0.002826 -0.130900 1.092472 0.202244 0.206485 0.720625 0.012577 0.270592 -0.184897 -0.130900 -1.026967 0.000208 0.342929 1.223392 -0.145084 0.620931 0.685188 1.160730 -0.031592 -0.458590 0.225310 1.090189 0.996061
4.166667 0.367891 -0.082617 0.082720 -0.007598 0.009757 -0.006691 1.120543 0.067342 0.091065 0.742576 0.012960 0.413639 0.036047 -0.130900 1.110357 0.197943 0.194738 0.745303 0.013008 0.300064 -0.176589 -0.130900 -0.987485 0.010082 0.325009 1.214159 -0.157578 0.617998 0.720102 1.158945 -0.021566 -0.496280 0.170167 1.205196 1.028708
4.183333 0.368894 -0.091994 0.076737 -0.007788 0.009968 -0.006663 1.112276 0.074746 0.078648 0.734504 0.012820 0.391632 0.052517 -0.130900 1.109406 0.186969 0.190354 0.750432 0.013098 0.298259 -0.179855 -0.130900 -0.964063 0.018102 0.313186 1.241759 -0.172812 0.623302 0.738174 1.153937 0.016641 -0.531954 0.158423 1.277014 1.040581
4.200000 0.372862 -0.102929 0.080869 -0.007793 0.010076 -0.006541 1.097421 0.080752 0.061705 0.721156 0.012587 0.379313 0.098663 -0.130900 1.099240 0.174039 0.190633 0.746928 0.013036 0.267908 -0.192676 -0.130900 -0.945330 0.029317 0.291304 1.282772 -0.168927 0.635900 0.744115 1.179716 0.068527 -0.572724 0.181779 1.297357 1.031736
4.216667 0.374575 -0.112078 0.080015 -0.007977 0.010063 -0.006618 1.082012 0.083846 0.051151 0.692964 0.012095 0.359773 0.098906 -0.130900 1.093416 0.162188 0.194915 0.733648 0.012805 0.238396 -0.180665 -0.130900 -0.926398 0.040373 0.254980 1.351971 -0.138909 0.629677 0.750856 1.178887 0.141396 -0.607443 0.190757 1.311077 1.030746
4.233333 0.379687 -0.120337 0.073263 -0.007920 0.010139 -0.006633 1.072882 0.090257 0.034055 0.686000 0.011973 0.335834 0.101771 -0.130900 1.083400 0.148641 0.199738 0.721740 0.012597 0.216073 -0.172020 -0.130900 -0.914085 0.046061 0.232249 1.411552 -0.138141 0.627074 0.783995 1.212395 0.225750 -0.631198 0.229284 1.305445 1.010522
4.250000 0.382279 -0.127657 0.064999 -0.007949 0.010034 -0.006606 1.074567 0.097770 0.020827 0.688711 0.012020 0.322799 0.102951 -0.130900 1.084242 0.137156 0.200107 0.723231 0.012623 0.220461 -0.140096 -0.130900 -0.908578 0.051817 0.220930 1.511791 -0.156433 0.663273 0.822393 1.201058 0.330585 -0.648296 0.278100 1.296146 1.026221
4.266667 0.382480 -0.134898 0.057702 -0.007844 0.010119 -0.006650 1.074657 0.102972 0.009736 0.692295 0.012083 0.325934 0.126182 -0.130900 1.083522 0.127637 0.206436 0.718578 0.012542 0.253768 -0.085223 -0.130900 -0.900715 0.053398 0.196195 1.579818 -0.158256 0.653931 0.860310 1.240054 0.424090 -0.656316 0.312869 1.267104 1.029750
4.283333 0.373317 -0.144157 0.049852 -0.007494 0.010163 -0.006643 1.087952 0.107104 -0.010829 0.716548 0.012506 0.376590 0.140296 -0.130900 1.091874 0.120376 0.213550 0.734505 0.012820 0.335221 -0.000688 -0.130900 -0.880765 0.056073 0.161812 1.648033 -0.142569 0.655158 0.891540 1.271196 0.458230 -0.664625 0.286166 1.279944 1.061556
4.300000 0.367829 -0.150928 0.039786 -0.007586 0.010091 -0.006740 1.096970 0.105532 -0.022883 0.728246 0.012710 0.415980 0.193764 -0.130900 1.107401 0.114416 0.211884 0.761022 0.013282 0.379376 0.065839 -0.130900 -0.867108 0.058656 0.149861 1.759819 -0.125845 0.695457 0.853682 1.288641 0.534172 -0.650360 0.301128 1.262028 1.102735
4.316667 0.368202 -0.151779 0.026978 -0.007494 0.010222 -0.006805 1.095964 0.106802 -0.021725 0.737105 0.012865 0.459195 0.249959 -0.130900 1.104220 0.114562 0.216791 0.772077 0.013475 0.434922 0.115781 -0.130900 -0.859256 0.055670 0.135046 1.846447 -0.110668 0.706635 0.846468 1.324546 0.617124 -0.625953 0.316850 1.221796 1.146096
4.333333 0.356726 -0.150484 0.013431 -0.007389 0.010120 -0.006790 1.114100 0.105471 -0.026184 0.757288 0.013217 0.497500 0.275405 -0.130900 1.122500 0.114354 0.215822 0.795287 0.013880 0.469252 0.132505 -0.130900 -0.847388 0.054072 0.120059 1.948545 -0.084475 0.727605 0.827904 1.376829 0.693175 -0.604105 0.311530 1.191872 1.206386
